<svg width="175" height="32" viewBox="0 0 175 32" fill="none" xmlns="http://www.w3.org/2000/svg">
<g opacity="0.08">
<path d="M7.83569 32C3.14912 32 0 28.8713 0 24.215V9.4692C0 4.81295 3.14906 1.6842 7.83569 1.6842H23.8077C28.4942 1.6842 31.6433 4.81289 31.6433 9.4692V24.215C31.6433 28.8713 28.4943 32 23.8077 32H7.83569Z" fill="black"/>
</g>
<path d="M7.83569 31.4386C3.14912 31.4386 0 28.3099 0 23.6536V8.9078C0 4.25155 3.14906 1.1228 7.83569 1.1228H23.8077C28.4942 1.1228 31.6433 4.25149 31.6433 8.9078V23.6536C31.6433 28.3099 28.4943 31.4386 23.8077 31.4386H7.83569Z" fill="url(#paint0_linear_351_4329)"/>
<path d="M0 8.98249V8.9078C0 4.25155 3.14906 1.1228 7.83569 1.1228H23.8077C28.4942 1.1228 31.6433 4.25149 31.6433 8.9078V8.98249H0Z" fill="#FF385C"/>
<g opacity="0.16">
<path d="M23.8077 1.1228H7.83569C3.14912 1.1228 0 4.25149 0 8.9078V23.6536C0 28.3099 3.14906 31.4386 7.83569 31.4386H23.8077C28.4942 31.4386 31.6433 28.3099 31.6433 23.6536V8.9078C31.6433 4.25149 28.4943 1.1228 23.8077 1.1228ZM30.5132 23.6536C30.5132 27.7008 27.8812 30.3158 23.8077 30.3158H7.83569C3.76215 30.3158 1.13012 27.7008 1.13012 23.6536V8.9078C1.13012 4.86062 3.76215 2.24562 7.83569 2.24562H23.8077C27.8812 2.24562 30.5132 4.86062 30.5132 8.9078V23.6536Z" fill="url(#paint1_linear_351_4329)"/>
</g>
<path d="M11.0616 18.4623H12.3596C13.8197 18.4623 14.8238 17.5719 14.8238 16.3362C14.8238 15.1387 13.9123 14.2944 12.4059 14.2944C11.0232 14.2944 10.0417 15.1236 9.92585 16.3514H8.90594C9.03704 14.5707 10.4435 13.3732 12.4517 13.3732C14.4141 13.3732 15.8895 14.5628 15.8895 16.2054C15.8895 17.5949 14.9854 18.5925 13.5643 18.8457V18.8765C15.2713 18.9765 16.3687 20.028 16.3687 21.5937C16.3687 23.4665 14.6848 24.8022 12.5138 24.8022C10.2655 24.8022 8.74377 23.5278 8.67426 21.7549H9.69417C9.7789 22.9905 10.8995 23.8809 12.5065 23.8809C14.1209 23.8809 15.2956 22.9367 15.2956 21.6241C15.2956 20.2116 14.1988 19.3521 12.4065 19.3521H11.0622C11.0616 19.3527 11.0616 18.4623 11.0616 18.4623Z" fill="#413D3D"/>
<path d="M20.8191 14.6628H20.788C20.6106 14.77 18.6792 16.1595 17.7983 16.7046V15.584C18.1306 15.3768 20.4942 13.719 20.8033 13.5349H21.8385V24.626H20.8186L20.8191 14.6628Z" fill="#413D3D"/>
<path opacity="0.24" d="M7.34579 6.73678C8.282 6.73678 9.04094 5.98275 9.04094 5.0526C9.04094 4.12244 8.282 3.36841 7.34579 3.36841C6.40958 3.36841 5.65063 4.12244 5.65063 5.0526C5.65063 5.98275 6.40958 6.73678 7.34579 6.73678Z" fill="black"/>
<path opacity="0.24" d="M24.2976 6.73678C25.2338 6.73678 25.9927 5.98275 25.9927 5.0526C25.9927 4.12244 25.2338 3.36841 24.2976 3.36841C23.3614 3.36841 22.6024 4.12244 22.6024 5.0526C22.6024 5.98275 23.3614 6.73678 24.2976 6.73678Z" fill="black"/>
<g opacity="0.16">
<path d="M23.8077 1.1228H7.83569C3.14912 1.1228 0 4.25149 0 8.9078V23.6536C0 28.3099 3.14906 31.4386 7.83569 31.4386H23.8077C28.4942 31.4386 31.6433 28.3099 31.6433 23.6536V8.9078C31.6433 4.25149 28.4943 1.1228 23.8077 1.1228ZM31.0783 23.6536C31.0783 27.9742 28.1564 30.8772 23.8077 30.8772H7.83569C3.487 30.8772 0.565093 27.9742 0.565093 23.6536V8.9078C0.565093 4.58724 3.487 1.68424 7.83569 1.68424H23.8077C28.1564 1.68424 31.0783 4.58724 31.0783 8.9078V23.6536Z" fill="black"/>
</g>
<path d="M7.34579 5.61406C7.0339 5.61406 6.78076 5.36256 6.78076 5.05269V0.561375C6.78076 0.2515 7.0339 0 7.34579 0C7.65769 0 7.91082 0.2515 7.91082 0.561375V5.05263C7.91089 5.3625 7.65769 5.61406 7.34579 5.61406Z" fill="url(#paint2_linear_351_4329)"/>
<path d="M24.2976 5.61406C23.9857 5.61406 23.7325 5.36256 23.7325 5.05269V0.561375C23.7325 0.2515 23.9857 0 24.2976 0C24.6095 0 24.8626 0.2515 24.8626 0.561375V5.05263C24.8626 5.3625 24.6095 5.61406 24.2976 5.61406Z" fill="url(#paint3_linear_351_4329)"/>
<path d="M79.3243 21.6968C78.6285 22.2914 77.8491 22.7477 76.9862 23.0657C76.1233 23.3837 75.2291 23.5428 74.3036 23.5428C73.5938 23.5428 72.9084 23.4494 72.2473 23.2628C71.5932 23.083 70.9773 22.8272 70.3998 22.4953C69.8291 22.1566 69.3072 21.7521 68.834 21.282C68.3608 20.8118 67.9538 20.2933 67.6128 19.7264C67.2788 19.1525 67.0178 18.5407 66.8299 17.8908C66.649 17.234 66.5585 16.553 66.5585 15.8478C66.5585 15.1426 66.649 14.4616 66.8299 13.8048C67.0178 13.148 67.2788 12.5361 67.6128 11.9692C67.9538 11.3954 68.3608 10.8734 68.834 10.4032C69.3072 9.93311 69.8291 9.53211 70.3998 9.20025C70.9773 8.86148 71.5932 8.60222 72.2473 8.42246C72.9084 8.23579 73.5938 8.14246 74.3036 8.14246C75.2291 8.14246 76.1233 8.30147 76.9862 8.6195C77.8491 8.93062 78.6285 9.38693 79.3243 9.98842L77.7377 12.5811C77.2993 12.1109 76.7809 11.7514 76.1825 11.5025C75.584 11.2467 74.9577 11.1188 74.3036 11.1188C73.6425 11.1188 73.0232 11.2433 72.4456 11.4922C71.868 11.741 71.3635 12.0798 70.9321 12.5085C70.5007 12.9302 70.1597 13.4314 69.9092 14.0122C69.6587 14.586 69.5334 15.1979 69.5334 15.8478C69.5334 16.4977 69.6587 17.1095 69.9092 17.6834C70.1597 18.2503 70.5007 18.7481 70.9321 19.1767C71.3635 19.6054 71.868 19.9442 72.4456 20.1931C73.0232 20.442 73.6425 20.5664 74.3036 20.5664C74.9577 20.5664 75.584 20.442 76.1825 20.1931C76.7809 19.9373 77.2993 19.5743 77.7377 19.1042L79.3243 21.6968Z" fill="#1C1C1C"/>
<path d="M89.8773 17.2789V14.3026C89.8773 13.8947 89.7972 13.511 89.6372 13.1514C89.4841 12.785 89.2719 12.467 89.0005 12.1974C88.7291 11.9277 88.409 11.7168 88.0402 11.5647C87.6783 11.4057 87.2921 11.3262 86.8815 11.3262C86.471 11.3262 86.0813 11.4057 85.7125 11.5647C85.3506 11.7168 85.034 11.9277 84.7626 12.1974C84.4912 12.467 84.2755 12.785 84.1154 13.1514C83.9623 13.511 83.8858 13.8947 83.8858 14.3026V17.2789H89.8773ZM92.873 23.2213H89.8773V20.2449H83.8858V23.2213H80.9005V14.3026C80.9005 13.4798 81.0571 12.709 81.3702 11.9899C81.6833 11.264 82.1078 10.6314 82.6437 10.0921C83.1864 9.55285 83.8197 9.12766 84.5434 8.81654C85.2741 8.50543 86.0534 8.34987 86.8815 8.34987C87.7096 8.34987 88.4855 8.50543 89.2092 8.81654C89.9399 9.12766 90.5766 9.55285 91.1194 10.0921C91.6622 10.6314 92.0901 11.264 92.4033 11.9899C92.7164 12.709 92.873 13.4798 92.873 14.3026V23.2213Z" fill="#1C1C1C"/>
<path d="M105.952 23.2213H95.4721V8.34987H98.4678V20.2449H105.952V23.2213Z" fill="#1C1C1C"/>
<path d="M117.778 23.2213H107.518V8.34987H117.778V11.3262H110.513V14.3026H115.43V17.2789H110.513V20.2449H117.778V23.2213Z" fill="#1C1C1C"/>
<path d="M131.849 23.2213H128.644L122.872 13.4314V23.2213H119.876V8.34987H123.081L128.853 18.1501V8.34987H131.849V23.2213Z" fill="#1C1C1C"/>
<path d="M146.629 15.7856C146.629 16.47 146.539 17.1303 146.358 17.7663C146.184 18.3955 145.933 18.9866 145.606 19.5397C145.279 20.0859 144.89 20.5871 144.437 21.0435C143.985 21.4928 143.48 21.88 142.924 22.205C142.367 22.5299 141.769 22.7823 141.128 22.962C140.495 23.1349 139.834 23.2213 139.145 23.2213H134.636V8.34987H139.145C139.834 8.34987 140.495 8.43975 141.128 8.6195C141.769 8.79235 142.367 9.04124 142.924 9.36618C143.48 9.69113 143.985 10.0818 144.437 10.5381C144.89 10.9875 145.279 11.4887 145.606 12.0418C145.933 12.588 146.184 13.1791 146.358 13.8152C146.539 14.4443 146.629 15.1011 146.629 15.7856ZM143.634 15.7856C143.634 15.1702 143.515 14.593 143.279 14.0537C143.049 13.5144 142.729 13.0443 142.318 12.6433C141.915 12.2354 141.438 11.9139 140.888 11.6788C140.346 11.4438 139.764 11.3262 139.145 11.3262H137.652V20.2449H139.145C139.764 20.2449 140.346 20.1308 140.888 19.9027C141.438 19.6676 141.915 19.3496 142.318 18.9486C142.729 18.5407 143.049 18.0671 143.279 17.5278C143.515 16.9816 143.634 16.4009 143.634 15.7856Z" fill="#1C1C1C"/>
<path d="M157.433 17.2789V14.3026C157.433 13.8947 157.353 13.511 157.193 13.1514C157.04 12.785 156.827 12.467 156.556 12.1974C156.284 11.9277 155.964 11.7168 155.596 11.5647C155.234 11.4057 154.848 11.3262 154.437 11.3262C154.026 11.3262 153.637 11.4057 153.268 11.5647C152.906 11.7168 152.589 11.9277 152.318 12.1974C152.047 12.467 151.831 12.785 151.671 13.1514C151.518 13.511 151.441 13.8947 151.441 14.3026V17.2789H157.433ZM160.428 23.2213H157.433V20.2449H151.441V23.2213H148.456V14.3026C148.456 13.4798 148.612 12.709 148.926 11.9899C149.239 11.264 149.663 10.6314 150.199 10.0921C150.742 9.55285 151.375 9.12766 152.099 8.81654C152.829 8.50543 153.609 8.34987 154.437 8.34987C155.265 8.34987 156.041 8.50543 156.765 8.81654C157.495 9.12766 158.132 9.55285 158.675 10.0921C159.218 10.6314 159.646 11.264 159.959 11.9899C160.272 12.709 160.428 13.4798 160.428 14.3026V23.2213Z" fill="#1C1C1C"/>
<path d="M166.023 11.3262V17.2789H169.019C169.43 17.2789 169.816 17.2029 170.178 17.0508C170.539 16.8918 170.856 16.6774 171.127 16.4078C171.399 16.1382 171.611 15.8236 171.764 15.4641C171.924 15.0977 172.004 14.7105 172.004 14.3026C172.004 13.8947 171.924 13.511 171.764 13.1514C171.611 12.785 171.399 12.467 171.127 12.1974C170.856 11.9277 170.539 11.7168 170.178 11.5647C169.816 11.4057 169.43 11.3262 169.019 11.3262H166.023ZM166.023 23.2213H163.028V8.34987H169.019C169.569 8.34987 170.098 8.42246 170.606 8.56765C171.114 8.70592 171.587 8.90642 172.025 9.16914C172.471 9.42495 172.874 9.73607 173.236 10.1025C173.605 10.462 173.918 10.863 174.175 11.3055C174.44 11.748 174.642 12.2215 174.781 12.7263C174.927 13.231 175 13.7564 175 14.3026C175 14.8142 174.934 15.312 174.802 15.7959C174.676 16.2799 174.492 16.7397 174.248 17.1752C174.012 17.6108 173.72 18.0118 173.372 18.3782C173.024 18.7446 172.634 19.0627 172.203 19.3323L173.862 23.2213H170.679L169.374 20.2242L166.023 20.2449V23.2213Z" fill="#1C1C1C"/>
<path d="M42.7205 23.2213H39.7248V8.34985H50.2047V11.3262H42.7205V14.3026H47.2089V17.2789H42.7205V23.2213Z" fill="#FF385C"/>
<path d="M62.0102 23.2213H51.7495V8.34985H62.0102V11.3262H54.7452V14.3026H59.6616V17.2789H54.7452V20.2449H62.0102V23.2213Z" fill="#FF385C"/>
<defs>
<linearGradient id="paint0_linear_351_4329" x1="15.8216" y1="31.437" x2="15.8216" y2="1.12105" gradientUnits="userSpaceOnUse">
<stop stop-color="#ECECEC"/>
<stop offset="1" stop-color="white"/>
</linearGradient>
<linearGradient id="paint1_linear_351_4329" x1="15.8216" y1="31.437" x2="15.8216" y2="1.12105" gradientUnits="userSpaceOnUse">
<stop/>
<stop offset="0.06" stop-opacity="0"/>
</linearGradient>
<linearGradient id="paint2_linear_351_4329" x1="7.34573" y1="5.61231" x2="7.34573" y2="-0.00175042" gradientUnits="userSpaceOnUse">
<stop stop-color="white"/>
<stop offset="1" stop-color="#DCDCDC"/>
</linearGradient>
<linearGradient id="paint3_linear_351_4329" x1="24.2976" y1="5.61231" x2="24.2976" y2="-0.00175042" gradientUnits="userSpaceOnUse">
<stop stop-color="white"/>
<stop offset="1" stop-color="#DCDCDC"/>
</linearGradient>
</defs>
</svg>
