<svg width="25" height="25" viewBox="0 0 25 25" fill="none" xmlns="http://www.w3.org/2000/svg">
<g id="building">
<path id="Vector" d="M3.30859 2.51721V22.0172H11.5586V19.0172H13.0586V22.0172H21.3086V2.51721H3.30859ZM4.80859 4.01721H19.8086V20.5172H14.5586V17.5172H10.0586V20.5172H4.80859V4.01721ZM6.30859 5.51721V7.01721H9.30859V5.51721H6.30859ZM10.8086 5.51721V7.01721H13.8086V5.51721H10.8086ZM15.3086 5.51721V7.01721H18.3086V5.51721H15.3086ZM6.30859 8.51721V10.0172H9.30859V8.51721H6.30859ZM10.8086 8.51721V10.0172H13.8086V8.51721H10.8086ZM15.3086 8.51721V10.0172H18.3086V8.51721H15.3086ZM6.30859 11.5172V13.0172H9.30859V11.5172H6.30859ZM10.8086 11.5172V13.0172H13.8086V11.5172H10.8086ZM15.3086 11.5172V13.0172H18.3086V11.5172H15.3086ZM6.30859 14.5172V16.0172H9.30859V14.5172H6.30859ZM10.8086 14.5172V16.0172H13.8086V14.5172H10.8086ZM15.3086 14.5172V16.0172H18.3086V14.5172H15.3086ZM6.30859 17.5172V19.0172H9.30859V17.5172H6.30859ZM15.3086 17.5172V19.0172H18.3086V17.5172H15.3086Z" fill="black"/>
</g>
</svg>
