<svg width="25" height="25" viewBox="0 0 25 25" fill="none" xmlns="http://www.w3.org/2000/svg">
<g id="calendar-day-solid">
<path id="Vector" d="M7.05859 3.26721V4.01721H4.05859V20.5172H20.5586V4.01721H17.5586V3.26721H16.0586V4.01721H8.55859V3.26721H7.05859ZM5.55859 5.51721H7.05859V6.26721H8.55859V5.51721H16.0586V6.26721H17.5586V5.51721H19.0586V7.01721H5.55859V5.51721ZM5.55859 8.51721H19.0586V19.0172H5.55859V8.51721ZM10.0586 10.0172V11.5172H11.5586V10.0172H10.0586ZM13.0586 10.0172V11.5172H14.5586V10.0172H13.0586ZM16.0586 10.0172V11.5172H17.5586V10.0172H16.0586ZM12.3086 12.2672V15.2672H15.3086V12.2672H12.3086ZM7.05859 13.0172V14.5172H8.55859V13.0172H7.05859ZM10.0586 13.0172V14.5172H11.5586V13.0172H10.0586ZM16.0586 13.0172V14.5172H17.5586V13.0172H16.0586ZM7.05859 16.0172V17.5172H8.55859V16.0172H7.05859ZM10.0586 16.0172V17.5172H11.5586V16.0172H10.0586ZM13.0586 16.0172V17.5172H14.5586V16.0172H13.0586Z" fill="black"/>
</g>
</svg>
