<svg width="25" height="25" viewBox="0 0 25 25" fill="none" xmlns="http://www.w3.org/2000/svg">
<g id="clock-solid">
<path id="Vector" d="M12.3086 3.26721C7.3457 3.26721 3.30859 7.30432 3.30859 12.2672C3.30859 17.2301 7.3457 21.2672 12.3086 21.2672C17.2715 21.2672 21.3086 17.2301 21.3086 12.2672C21.3086 7.30432 17.2715 3.26721 12.3086 3.26721ZM12.3086 4.76721C16.46 4.76721 19.8086 8.11585 19.8086 12.2672C19.8086 16.4186 16.46 19.7672 12.3086 19.7672C8.15723 19.7672 4.80859 16.4186 4.80859 12.2672C4.80859 8.11585 8.15723 4.76721 12.3086 4.76721ZM11.5586 6.26721V13.0172H16.8086V11.5172H13.0586V6.26721H11.5586Z" fill="black"/>
</g>
</svg>
