<svg width="33" height="33" viewBox="0 0 33 33" fill="none" xmlns="http://www.w3.org/2000/svg">
<g id="edit">
<path id="Vector" d="M25.6914 4.76404C24.9258 4.76404 24.1758 5.06091 23.5977 5.63904L13.6914 15.514L13.4727 15.7328L13.4102 16.0453L12.7227 19.5453L12.4102 21.014L13.8789 20.7015L17.3789 20.014L17.6914 19.9515L17.9102 19.7328L27.7852 9.82654C28.9375 8.67419 28.9375 6.79138 27.7852 5.63904C27.207 5.06091 26.457 4.76404 25.6914 4.76404ZM25.6914 6.70154C25.9258 6.70154 26.1562 6.82263 26.3789 7.04529C26.8242 7.4906 26.8242 7.97498 26.3789 8.42029L16.6914 18.1078L14.9727 18.4515L15.3164 16.7328L25.0039 7.04529C25.2266 6.82263 25.457 6.70154 25.6914 6.70154ZM4.69141 8.73279V28.7328H24.6914V15.5453L22.6914 17.5453V26.7328H6.69141V10.7328H15.8789L17.8789 8.73279H4.69141Z" fill="black"/>
</g>
</svg>
