<svg width="8" height="8" viewBox="0 0 8 8" fill="none" xmlns="http://www.w3.org/2000/svg">
<g id="video-camera">
<path id="Vector" d="M0.799988 2.39998C0.799988 2.1878 0.884273 1.98432 1.0343 1.83429C1.18433 1.68426 1.38781 1.59998 1.59999 1.59998H3.99999C4.21216 1.59998 4.41564 1.68426 4.56567 1.83429C4.7157 1.98432 4.79999 2.1878 4.79999 2.39998V5.59998C4.79999 5.81215 4.7157 6.01563 4.56567 6.16566C4.41564 6.31569 4.21216 6.39998 3.99999 6.39998H1.59999C1.38781 6.39998 1.18433 6.31569 1.0343 6.16566C0.884273 6.01563 0.799988 5.81215 0.799988 5.59998V2.39998ZM5.82119 2.84238C5.75476 2.87557 5.69888 2.92661 5.65981 2.98977C5.62074 3.05292 5.60003 3.12571 5.59999 3.19998V4.79998C5.60003 4.87424 5.62074 4.94703 5.65981 5.01019C5.69888 5.07334 5.75476 5.12438 5.82119 5.15758L6.62119 5.55758C6.68216 5.58804 6.7499 5.60242 6.81799 5.59936C6.88607 5.59629 6.95225 5.57588 7.01023 5.54005C7.06821 5.50423 7.11608 5.45419 7.14929 5.39467C7.1825 5.33515 7.19995 5.26813 7.19999 5.19998V2.79998C7.19995 2.73182 7.1825 2.6648 7.14929 2.60528C7.11608 2.54577 7.06821 2.49572 7.01023 2.4599C6.95225 2.42407 6.88607 2.40366 6.81799 2.40059C6.7499 2.39753 6.68216 2.41191 6.62119 2.44238L5.82119 2.84238Z" fill="white" fill-opacity="0.8"/>
</g>
</svg>
