<svg width="25" height="24" viewBox="0 0 25 24" fill="none" xmlns="http://www.w3.org/2000/svg">
<g id="plus-circle-solid">
<path id="Vector" d="M12.5 2.25C7.12402 2.25 2.75 6.62402 2.75 12C2.75 17.376 7.12402 21.75 12.5 21.75C17.876 21.75 22.25 17.376 22.25 12C22.25 6.62402 17.876 2.25 12.5 2.25ZM12.5 3.75C17.0645 3.75 20.75 7.43555 20.75 12C20.75 16.5645 17.0645 20.25 12.5 20.25C7.93555 20.25 4.25 16.5645 4.25 12C4.25 7.43555 7.93555 3.75 12.5 3.75ZM11.75 7.5V11.25H8V12.75H11.75V16.5H13.25V12.75H17V11.25H13.25V7.5H11.75Z" fill="white"/>
</g>
</svg>
