<svg width="25" height="25" viewBox="0 0 25 25" fill="none" xmlns="http://www.w3.org/2000/svg">
<g id="pen-nib-solid">
<path id="Vector" d="M16.8086 2.95667L13.4175 6.34778L8.3623 7.79358C7.37155 8.06133 6.58722 8.80262 6.26172 9.78137L3.20312 19.2223L4.27832 20.2975L5.35352 21.3727L14.7988 18.3126C15.7723 17.9886 16.5138 17.2033 16.7793 16.2223L18.2251 11.1613L21.6191 7.76721L16.8086 2.95667ZM16.8086 5.07776L19.498 7.76721L17.5586 9.70667L14.8691 7.01721L16.8086 5.07776ZM13.5918 7.86096L16.7148 10.984L15.3335 15.8209C15.197 16.3249 14.8205 16.7238 14.3315 16.8873L6.07568 19.5607L10.4219 15.2145C10.5479 15.2488 10.6779 15.2666 10.8086 15.2672C11.2064 15.2672 11.5879 15.1092 11.8693 14.8279C12.1506 14.5466 12.3086 14.165 12.3086 13.7672C12.3086 13.3694 12.1506 12.9879 11.8693 12.7066C11.5879 12.4252 11.2064 12.2672 10.8086 12.2672C10.5788 12.2675 10.3522 12.3206 10.1462 12.4224C9.94017 12.5242 9.7603 12.6719 9.62045 12.8543C9.4806 13.0366 9.3845 13.2486 9.33957 13.4739C9.29464 13.6993 9.30209 13.9319 9.36133 14.1539L5.01514 18.5001L7.68701 10.2501C7.85201 9.75437 8.25139 9.37888 8.76514 9.23938L13.5918 7.86096Z" fill="black"/>
</g>
</svg>
