<svg width="24" height="24" viewBox="0 0 15 11" fill="none" xmlns="http://www.w3.org/2000/svg">
<path d="M4.5 5.5C3.04688 5.5 1.875 4.32812 1.875 2.875C1.875 1.44531 3.04688 0.25 4.5 0.25C5.92969 0.25 7.125 1.44531 7.125 2.875C7.125 4.32812 5.92969 5.5 4.5 5.5ZM6.28125 6.25C7.78125 6.25 9 7.46875 9 8.96875V9.625C9 10.2578 8.48438 10.75 7.875 10.75H1.125C0.492188 10.75 0 10.2578 0 9.625V8.96875C0 7.46875 1.19531 6.25 2.69531 6.25H2.88281C3.375 6.48438 3.91406 6.625 4.5 6.625C5.0625 6.625 5.60156 6.48438 6.09375 6.25H6.28125ZM11.25 5.5C10.0078 5.5 9 4.49219 9 3.25C9 2.00781 10.0078 1 11.25 1C12.4922 1 13.5 2.00781 13.5 3.25C13.5 4.49219 12.4922 5.5 11.25 5.5ZM12.375 6.25C13.8047 6.25 15 7.44531 15 8.875C15 9.50781 14.4844 10 13.875 10H9.72656C9.72656 9.95312 9.75 9.90625 9.75 9.85938V8.96875C9.75 8.05469 9.375 7.23438 8.8125 6.625C9.1875 6.39062 9.63281 6.25 10.125 6.25H10.1953C10.5234 6.36719 10.875 6.4375 11.25 6.4375C11.6016 6.4375 11.9531 6.36719 12.2812 6.25H12.375Z" fill="black"/>
</svg>
