<svg width="33" height="33" viewBox="0 0 33 33" fill="none" xmlns="http://www.w3.org/2000/svg">
<g id="trash-alt-solid">
<path id="Vector" d="M15.6914 4.73279C15.168 4.73279 14.6328 4.91638 14.2539 5.29529C13.875 5.67419 13.6914 6.20935 13.6914 6.73279V7.73279H7.69141V9.73279H8.69141V25.7328C8.69141 27.3773 10.0469 28.7328 11.6914 28.7328H23.6914C25.3359 28.7328 26.6914 27.3773 26.6914 25.7328V9.73279H27.6914V7.73279H21.6914V6.73279C21.6914 6.20935 21.5078 5.67419 21.1289 5.29529C20.75 4.91638 20.2148 4.73279 19.6914 4.73279H15.6914ZM15.6914 6.73279H19.6914V7.73279H15.6914V6.73279ZM10.6914 9.73279H24.6914V25.7328C24.6914 26.2875 24.2461 26.7328 23.6914 26.7328H11.6914C11.1367 26.7328 10.6914 26.2875 10.6914 25.7328V9.73279ZM12.6914 12.7328V23.7328H14.6914V12.7328H12.6914ZM16.6914 12.7328V23.7328H18.6914V12.7328H16.6914ZM20.6914 12.7328V23.7328H22.6914V12.7328H20.6914Z" fill="black"/>
</g>
</svg>
